<?xml version="1.0" encoding="utf-8"?>
<svg version="1.1" x="0px" y="0px" viewBox="4.713 4.898 90.388 90.388" xmlns="http://www.w3.org/2000/svg">
  <g transform="translate(0,-952.36218)">
    <path style="text-indent:0;text-transform:none;direction:ltr;block-progression:tb;baseline-shift:baseline;color:#000000;enable-background:accumulate;" d="m 87.478075,964.88409 c -0.781,-0.78108 -2.0473,-0.78106 -2.8283,10e-6 l -8.4854,8.48524 c -0.781,0.78112 -0.781,2.04739 0,2.82846 0.7811,0.78105 2.0474,0.78109 2.8285,2e-5 l 8.4853,-8.48529 c 0.7811,-0.78107 0.781,-2.04738 -10e-5,-2.82844 z m -16.6832,-7.04893 c -0.362,-0.36198 -0.8619,-0.57452 -1.4143,-0.57459 -1.1045,-4e-5 -1.9888,0.88417 -1.9887,1.98877 l -0.022,11.99868 c 0,1.1045 0.9062,2.01076 2.0108,2.01087 1.1046,7e-5 2.0109,-0.9062 2.0109,-2.01083 l -0.022,-11.99874 c 1e-4,-0.55228 -0.2126,-1.05236 -0.5744,-1.41416 z m 23.7322,23.7322 c -0.3619,-0.3619 -0.8619,-0.57452 -1.4142,-0.57451 l -11.9987,-0.022 c -1.1047,-4e-5 -2.0109,0.90624 -2.0109,2.01078 0,1.10451 0.9063,2.01074 2.0109,2.01087 l 11.9986,-0.0221 c 1.1047,1.1e-4 1.9888,-0.88417 1.9888,-1.98871 -1e-4,-0.55236 -0.2126,-1.05229 -0.5745,-1.41424 z m -25.4338,-3.95539 c -0.7405,-0.74039 -2.0879,-0.74035 -2.8283,6e-5 l -60.8113,60.81117 c -0.7403,0.7405 -0.7404,2.0879 1e-4,2.8284 l 5.6568,5.6569 c 0.7406,0.7404 2.0879,0.7404 2.8284,0 l 60.8113,-60.81119 c 0.7404,-0.74055 0.7403,-2.08792 -1e-4,-2.82843 z m -15.5563,-14.14209 c -0.7811,-0.7811 -2.0474,-0.78108 -2.8284,-10e-6 -0.7811,0.78107 -0.7811,2.04732 0,2.82843 l 8.4852,8.48525 c 0.7812,0.7811 2.0474,0.78108 2.8285,2e-5 0.781,-0.78106 0.7811,-2.04733 0,-2.82841 z m 26.8701,26.87008 c -0.7811,-0.78111 -2.0474,-0.78108 -2.8284,-2e-5 -0.7811,0.78106 -0.7811,2.04733 -1e-4,2.82841 l 8.4853,8.48525 c 0.7811,0.7811 2.0474,0.7811 2.8285,0 0.781,-0.781 0.781,-2.04734 0,-2.82837 z m -12.728,-8.48533 2.8284,2.82842 -11.3137,11.31372 -2.8284,-2.82843 z m -10.2088,-2.12133 c -0.362,-0.36192 -0.8398,-0.59654 -1.3921,-0.5966 l -11.9988,0.0221 c -1.1046,10e-6 -1.9888,0.88416 -1.9887,1.98875 0,1.10469 0.8841,1.98873 1.9888,1.98883 l 11.9987,0.0221 c 1.1046,7e-5 2.0108,-0.9062 2.0108,-2.01083 -10e-5,-0.55239 -0.2568,-1.05227 -0.6187,-1.41427 z m 15.1587,15.15866 c -0.362,-0.36195 -0.8619,-0.61862 -1.4144,-0.6188 -1.1045,4e-5 -2.0109,0.90629 -2.0107,2.01086 l 0.022,11.99868 c -1e-4,1.1046 0.884,1.9887 1.9888,1.9889 1.1046,0 1.9887,-0.8842 1.9887,-1.9888 l 0.022,-11.99877 c 0,-0.55224 -0.2348,-1.03024 -0.5965,-1.39207 z" fill="#000000" fill-opacity="1" stroke="none" marker="none" visibility="visible" display="inline" overflow="visible"/>
  </g>
</svg>